<svg xmlns="http://www.w3.org/2000/svg" version="1.1" x="0" y="0" viewBox="0 0 1305.1 435" enable-background="new 0 0 1305.13 435.04" xml:space="preserve"><path fill="#3A6A9B" d="M265.2 344.7c-3.7 0.2-9.2 0.5-15.8 1.4 -12.8 1.7-19.5 2.5-22 6.4 -5.1 8.1 2.9 20.8 0.7 21.9 -2.1 1.1-7-11.6-19.6-16 -2.8-1-8.1-2.8-13.3-0.6 -7.6 3.2-8.3 11.9-13 11.9 -4.5 0-4.8-8.3-11.9-9.8 -3.3-0.7-5.2 0.7-9.5-0.9 -2.8-1-3.9-2.3-5.4-3.2 -7.6-4.6-16.4 6-24.6 3.2 -8-2.8-5.2-14.7-14.1-18.7 -8.3-3.8-14.7 4.9-21.4 1.1 -8.3-4.8-2.8-20.6-12.2-25.9 -4.7-2.6-10.1-1.1-11.8-0.6 -11.5 3.2-16.1 16.8-18 15.9 -2.3-1 8.6-18.1 2.8-31.7 -3.4-8-8.3-6-19.5-19.3 -4.8-5.7-14.8-17.6-11.3-26 1.6-3.8 5.5-5.8 4.7-8.6 -0.5-1.9-2.8-2.9-6.2-4.4 -4.2-1.9-5.1-1.8-7.3-3.4 -3-2.2-5.3-5.5-4.6-6.4 0.8-1.2 5.3 2.6 8.7 0.7 2.2-1.2 1.5-3.3 4.5-6.5 2.8-2.9 5.3-3.2 5.2-4.3 -0.2-1.9-7.9-0.5-10.8-4.9 -1.7-2.6 0-4.7-1.8-7.2 -2.8-3.9-9.6-2.5-9.6-3.6 0-0.7 2.3-1.5 8.3-3.3 8.7-2.6 10.4-2.7 11.3-4.3 1.7-3-1.1-7.5-3.5-11.5 -5.8-9.4-12.4-13.2-11.5-14.9 1.2-2.1 9.4 3.4 17.1-0.4 4.2-2.1 8.2-6.8 7.9-11.3 -0.4-5.7-9.7-5.3-12.9-13.8 -1.1-3-1.4-6.8 0-7.8 1.4-1 3.4 1.5 5.8 0.4 2.1-0.9 3-4.1 3.5-5.7 0 0 0.5-1.8 0.6-3.5 0.2-6.9-11.6-21.5-11.2-21.9 0.4-0.4 9.2 10.8 13.7 8.8 4.1-1.8 0.2-13 6.2-18.1 5.5-4.7 13.7 0.5 15.8-2.6 4.1-6-23.5-31.2-21.9-33 0.5-0.6 3.7 1.8 11.3 6.3 13.6 8.2 17.5 9 19.5 9.3 4.6 0.7 13.7 0.7 15.6-3.4C86.3 68 70.1 56.9 72.4 53c2.5-4.1 20.6 9.1 32 2.5 15.1-8.8 8.4-46.8 15.3-47.9 4.4-0.8 7.1 15.3 21.7 21 3 1.2 6.4 2.5 10.6 1.6 12.7-2.6 17.8-22.2 21.3-21.1 3 0.9-1.6 15.4 3.5 18.7 6 3.8 18.2-11.9 25.9-8.1 6.5 3.2 1.5 16.6 9 21.5 7.6 4.9 18.9-4.7 24.6 0.9 3.3 3.3 1.1 8.2 4.5 10.1 4.7 2.7 11.2-5.1 15.2-2.6 3.7 2.3-0.4 9.6 3.9 16.1 4.5 6.7 14.3 7 15.8 7.1 11 0.4 15.5-7.1 19.6-4.7 6.6 3.8-3.1 24.1 5.1 31.1 6.3 5.4 18.2-1.6 20.6 2.9 2.1 4-6.9 9.9-5.5 19.1 0.9 5.6 5.1 9.3 5.6 9.7 5.5 4.6 10.8 2.4 13.2 6.1 2.4 3.6-1.7 7.4-2.1 13.7 -0.9 15.3 21.8 22.5 19.4 33.3 -1.2 5.5-7.3 3.7-11.8 12.5 -3.2 6.3-3.4 13.7-3.7 23.5 -0.1 3.5-0.2 5.2 0 6.6 1.5 13.5 12 16.4 11.7 24.1 -0.3 5.7-6.2 6-16.1 17 -6.9 7.6-16 17.8-14.5 27.8 1.5 9.5 11.5 13.3 9.4 20.7 -0.1 0.4-1.1 3.6-3.9 5.2 -7.4 4.4-15.8-9.4-26.7-6.9 -7.4 1.7-14.3 10.7-14.2 17.8 0.1 5 3.6 7.8 2.2 12.7 -0.9 3.4-3.6 5.6-5.5 6.9"/><path fill="#FFFFFF" d="M309.2 231.7c0.6-5.8 2.3-20.7-3.7-23.7 -7.7-3.8-30.5 11.7-27.9 27.4 1.8 11 15.7 20.3 23.5 17C307.2 249.8 308.3 239.9 309.2 231.7zM252.1 246.4c1.8-14.6-17.2-25-23.3-28.4 -13.8-7.6-36.4-12.7-43.1-3.2 -6.1 8.6 3.9 25.2 6.6 29.6 4.3 7 13.3 21.9 29.5 22.7C234.9 267.6 250.6 258.7 252.1 246.4zM206.5 181.6c-1.3 1.9 0.9 5.9 2.7 8 5.4 6.3 11.9 1.6 20.5 6.2 7.7 4.1 12 12.9 23.5 25 0.5 0.5 1.4 1.4 1.8 1.2 1.4-0.7-1.8-13.4-8-22.3C235 182.7 209.8 176.9 206.5 181.6zM277.5 207.8c-2.6 4.5-5.2 10.2-4.5 10.7 1.2 0.8 6.5-13.6 19-19.9 2-1 6.3-2.8 6.8-6.2 0.3-1.5-0.1-3.8-1.5-4.5C293.6 186 283.4 197.6 277.5 207.8z"/><path fill="#2B2B2B" d="M525.6 146.7c0 0.9-0.1 1.9-0.3 3.1 -0.2 1.2-0.5 2.5-0.8 3.8 -0.4 1.3-0.8 2.5-1.3 3.6 -0.5 1.1-1 2-1.6 2.7 -1.6 1.9-4.4 2.8-8.4 2.8 0-4.4-0.6-8.1-1.9-11 -0.6-1.4-1.6-2.5-3.2-3.5 -1.5-0.9-3.2-1.7-5.1-2.4 -1.9-0.6-3.8-1.1-5.7-1.4 -1.9-0.3-3.6-0.4-4.9-0.4 -3.1 0-6.1 0.1-9 0.2 -2.9 0.1-5.7 0.4-8.5 0.8 -2.8 0.4-5.6 1-8.4 1.8 -2.8 0.8-5.8 1.7-8.8 3 -2.3 1-4.8 2.1-7.3 3.5 -2.5 1.3-4.9 2.9-7 4.5 -2.1 1.7-4 3.6-5.6 5.6 -1.6 2-2.5 4.2-2.9 6.6 -0.1 1.8 0.4 3.9 1.7 6.3 1.2 2.3 2.9 4.6 5 6.8 2.1 2.2 4.6 4.2 7.3 6.1 2.8 1.8 5.7 3.2 8.6 4 0.5 0.2 1.7 0.6 3.6 1.3 1.9 0.7 3.9 1.3 6.1 2.1 2.2 0.7 4.2 1.4 6.1 2 1.9 0.6 3 1 3.6 1.1 14.7 3.8 25.6 8.3 32.8 13.4 7.1 5.2 10.7 11.5 10.7 19 0 2.4-0.5 4.8-1.6 7.2 -1.1 2.4-2.4 4.7-4 6.8 -1.6 2.2-3.4 4.2-5.3 6 -1.9 1.8-3.6 3.4-5.3 4.6 -1.9 1.5-4 3-6.4 4.6 -2.4 1.6-5 3.1-7.7 4.6 -2.7 1.5-5.6 2.9-8.5 4.2s-5.9 2.4-8.9 3.4c-2.9 1-6 1.9-9.2 2.7 -3.2 0.8-6.4 1.5-9.6 2.1 -3.2 0.6-6.2 1.1-9.1 1.4 -2.9 0.4-5.5 0.5-7.8 0.5 -1.7 0-3.9-0.2-6.6-0.7 -2.7-0.5-5.4-1.2-8-2 -2.6-0.9-4.8-1.9-6.7-3.1 -1.9-1.2-2.8-2.5-2.8-3.9 0-0.8 0.1-1.9 0.3-3.1 0.2-1.2 0.6-2.4 1-3.6 0.4-1.2 0.9-2.2 1.5-3 0.6-0.8 1.2-1.2 1.9-1.2 1.3 0 2.7 0.2 4.1 0.6 1.4 0.4 3.1 0.9 5 1.4 1.9 0.5 4.2 1 6.8 1.4 2.6 0.4 5.8 0.6 9.6 0.6 3.9 0 8-0.4 12.2-1.2 4.2-0.8 8.3-1.9 12.4-3.3 4-1.4 7.9-2.9 11.6-4.7 3.7-1.8 7-3.6 9.9-5.5 1.4-0.9 2.9-2 4.5-3.2 1.7-1.2 3.2-2.5 4.6-4 1.4-1.4 2.6-3 3.6-4.6 1-1.6 1.5-3.3 1.5-5.1 0-2.5-1.8-4.8-5.5-7.1 -3.6-2.2-7.2-3.9-11-5.2 -3.7-1.2-7.1-2.2-10-2.9 -3.6-0.9-7.6-2.1-12.1-3.6 -4.5-1.5-9.4-3.3-14.7-5.4 -8.8-3.4-16.3-8.3-22.5-14.8 -6.1-6.5-9.2-14.4-9.2-23.5 -0.1-4.3 1.2-8.4 4-12.4 2.8-4 6.5-7.6 11.2-11 4.7-3.4 10-6.4 16.1-9 6-2.6 12.2-4.7 18.6-6.2 1.3-0.3 2.9-0.5 4.7-0.9 1.9-0.3 3.8-0.6 5.8-0.8 2-0.2 3.9-0.4 5.8-0.6 1.9-0.2 3.4-0.2 4.7-0.2 1.6 0 3.5 0.1 5.9 0.3 2.4 0.2 4.8 0.5 7.3 0.9 2.5 0.4 4.9 0.9 7.1 1.5s4.1 1.3 5.4 2.1c3.3 1.8 5.9 3.9 7.8 6.4C524.7 141.9 525.6 144.3 525.6 146.7zM670.1 203.5c0 2.3-0.8 4.5-2.5 6.4 -0.6 0.7-1.5 1.5-2.7 2.6 -1.2 1.1-2.3 2.1-3.3 3.1l-9 9c-1.7 1.7-3.3 3.2-4.7 4.5 -1.5 1.3-2.7 2.5-3.9 3.5 -1.9 1.6-4.1 3.4-6.8 5.6 -2.6 2.2-5.7 4.7-9.1 7.6 -6.8 5.6-13 10.2-18.7 13.8 -5.7 3.5-11.9 6.3-18.4 8.5 -6.5 2.1-13.5 3.2-20.7 3.2 -4.5 0.1-8.5-0.6-12.1-2.3 -3.5-1.7-6.5-4-9-6.9 -2.4-2.9-4.3-6.3-5.6-10.2s-1.9-8-1.8-12.4c0-8.7 1.8-17.3 5.5-26 3.7-8.7 8.6-17.2 14.7-25.6 3.3-4.4 7.3-8.7 12-12.7 4.6-4 8.8-6 12.6-6 2 0 4.3 1.7 6.9 5.1 1.3 1.7 2.5 3.5 3.7 5.4 1.2 1.9 2.3 4 3.2 6.1 2 4.2 2.9 7.3 2.9 9.2 0 1.9-0.6 4.3-1.8 7.3 -1.2 3-2.6 4.5-4.2 4.5 -2.3 0-4.3-1.6-5.9-4.8 -0.8-1.6-1.3-3-1.7-4.1 -0.4-1.1-0.8-2.4-1.2-3.7 -1.5-3.9-2.8-6.7-3.8-8.4 -4.3 0.8-7.9 2.9-10.7 6.4 -1.4 1.7-2.8 3.7-4.2 6.1 -1.5 2.4-3 5.1-4.6 8.1 -1.3 2.3-2.5 5-3.6 7.9 -1.1 2.9-2 5.9-2.8 9 -0.8 3.1-1.4 6.2-1.9 9.3 -0.5 3.1-0.7 6-0.7 8.6 0 3.8 1.6 7.5 4.9 11 3.3 3.5 6.9 5.2 10.7 5.2 8.3 0 16.2-1.5 23.7-4.4 7.5-2.9 14.7-6.8 21.6-11.7 6.8-4.7 13.8-10.3 20.8-16.7 3.5-3.2 6.9-6.2 10-9 3.2-2.8 6.2-5.5 9-8.1 4.8-4.2 8.7-6.2 11.8-6.2C669.7 200.9 670.1 201.8 670.1 203.5zM789.1 192.8c0 2.2-0.6 4.6-1.9 7.1 -1.3 2.5-2.7 4.8-4.2 6.9 -4.1 5.5-8.4 10.6-12.8 15.2 -4.5 4.6-9 8.9-13.5 13 -4.7 4.3-9.5 7.7-14.2 10.1 -4.7 2.4-9 3.6-12.7 3.6 -1.6 0-3.2-0.4-4.8-1.2 -1.6-0.8-3.1-1.8-4.5-3.1 -1.4-1.3-2.6-2.7-3.7-4.4 -1.1-1.7-1.9-3.4-2.5-5.3 -0.3-1-0.6-2.1-0.9-3.4 -0.3-1.3-0.5-2.4-0.8-3.5 -0.3-1.1-0.5-2-0.9-2.7 -0.3-0.7-0.7-1.1-1.1-1.1 -0.3 0-0.8 0.4-1.7 1.3 -0.8 0.9-1.8 1.9-3 3.3 -1.1 1.3-2.4 2.8-3.7 4.5 -1.3 1.7-2.6 3.3-3.9 4.8s-2.4 3-3.4 4.3c-1 1.3-1.8 2.3-2.4 2.9 -2 2.3-4.4 4.6-7.2 7 -2.8 2.4-5.5 4.5-8.3 6.5 -2.8 2-5.3 3.6-7.6 4.8 -2.3 1.2-4 1.9-5.1 1.9 -2.5 0-4.9-0.4-7.2-1.2 -2.3-0.8-4.3-2-6.1-3.6s-3.2-3.5-4.2-5.8c-1.1-2.3-1.6-4.9-1.6-7.8 0-4.8 1-10.3 2.9-16.5 1.9-6.2 4.5-12.5 7.6-18.8 3.2-6.4 6.8-12.5 10.9-18.4 4.1-5.9 8.4-10.9 12.8-15.2 5.1-4.9 10.5-8.5 16.2-10.8 5.6-2.3 11.4-3.5 17.3-3.5 1.1 0 2.1 0.2 2.9 0.7 0.8 0.5 1.5 1 2.1 1.8 0.6 0.7 1.1 1.5 1.6 2.4 0.5 0.9 0.9 1.8 1.4 2.7 0.3 0.6 0.8 1.2 1.7 2 0.9 0.7 1.7 1.5 2.6 2.2 0.9 0.8 1.7 1.5 2.4 2.2 0.7 0.7 1 1.4 1 2.1 0 1.4-0.3 2.9-0.8 4.5 -0.5 1.7-1.2 3.6-1.8 5.8 -0.6 2.2-1.2 4.7-1.8 7.4 -0.5 2.8-0.8 5.9-0.8 9.5 0 2.3 0.2 5 0.6 8 0.4 3 1.1 5.8 2 8.5 0.9 2.7 2 5 3.4 6.8 1.4 1.8 3 2.7 4.8 2.7 2.2 0 4.4-0.6 6.6-1.9 2.2-1.3 4.8-3 7.6-5.3 6.4-5.1 12.4-10.6 18.2-16.7 5.7-6 11.6-12.1 17.6-18.1 1-1 2-1.6 2.9-1.6C788.3 189.3 789.1 190.4 789.1 192.8zM712.7 181.5c0-0.1-0.1-0.5-0.3-1.1s-0.5-1.2-0.9-1.8c-0.4-0.6-0.9-1.2-1.4-1.7 -0.5-0.5-1.2-0.7-1.8-0.7h-0.2c-2.4 0.3-5 1.1-7.7 2.4 -2.7 1.3-5.6 3.4-8.7 6.2 -3.1 2.8-6.3 6.3-9.7 10.7 -3.4 4.4-6.9 9.7-10.5 15.9 -1.1 1.9-2.3 4-3.7 6.2 -1.3 2.3-2.6 4.7-3.8 7.4 -1.2 2.7-2.2 5.6-3 8.6 -0.8 3.1-1.2 6.3-1.2 9.7 0 2 0.7 3.6 2.2 4.6 1.5 1 3 1.6 4.5 1.6 1.6 0 3.7-0.9 6.4-2.7 2.6-1.8 5.4-4.2 8.5-7.1 3-3 6.1-6.3 9.3-10.2 3.2-3.8 6.1-7.7 8.8-11.8 2.7-4 5-8 7-11.9 2-3.9 3.3-7.4 4.1-10.6 0.2-1 0.4-2.1 0.7-3.5 0.3-1.3 0.5-2.7 0.7-4 0.2-1.3 0.4-2.6 0.6-3.7C712.6 182.9 712.7 182.1 712.7 181.5zM866.2 192.4c-0.6 1.2-1.4 2.3-2.3 3 -0.9 0.8-1.9 1.4-3 1.7 -1.1 0.4-2.2 0.5-3.2 0.5 -0.9 0-2-0.2-3.3-0.5 -1.3-0.3-2.6-0.5-3.9-0.6 -2.5 0-5.6 0.7-9.1 2.1 -3.5 1.4-7.2 3.2-10.9 5.4 -3.7 2.2-7.3 4.7-10.8 7.4s-6.5 5.4-8.9 8.1c-1.3 1.5-2.7 3.2-4.1 5 -1.5 1.8-2.9 3.7-4.2 5.8 -1.4 2-2.6 4.1-3.7 6.2 -1.1 2.1-1.8 4.1-2.3 6.1 -0.3 1-0.4 2.3-0.3 3.9 0.1 1.5 0.2 3.2 0.4 5 0.2 1.8 0.4 3.7 0.6 5.6 0.2 1.9 0.3 3.8 0.3 5.5 0 1 0 2 0 3 0 0.9-0.1 1.8-0.3 2.7 -0.1 0.6-0.5 1.2-1.1 1.9s-1.3 1.3-2.1 1.9c-0.8 0.6-1.8 1.1-2.8 1.5 -1 0.4-2 0.6-2.9 0.6 -1.5-0.1-2.8-0.8-3.8-2.3 -1-1.5-1.9-3.5-2.5-6.1 -0.6-2.6-1.1-5.7-1.4-9.2 -0.3-3.5-0.4-7.4-0.4-11.6 0-1.2 0-3.1 0.1-5.5 0.1-2.4 0.2-4.9 0.2-7.4 0.1-2.5 0.2-4.8 0.3-6.8 0.1-2 0.2-3.2 0.2-3.7 0.1-1.1 0.2-2.6 0.2-4.5 0.1-1.9 0.2-4 0.4-6.2 0.2-2.2 0.4-4.5 0.6-6.9 0.2-2.3 0.5-4.5 0.7-6.4 0.1-0.8 0.3-1.9 0.4-3.4 0.1-1.5 0.3-3 0.4-4.6 0.2-1.6 0.3-3.1 0.5-4.6s0.4-2.5 0.6-3.3c0.2-0.8 0.6-1.7 1.3-2.7 0.7-1 1.5-2 2.5-3 1-1 2.1-1.8 3.3-2.5 1.2-0.7 2.5-1 3.8-1 1.4 0.1 2.5 0.3 3.4 0.8s1.6 1.1 2.1 1.8c0.5 0.7 0.9 1.4 1.1 2.2 0.2 0.8 0.3 1.4 0.3 2 0 0.3-0.1 1-0.3 1.9 -0.2 0.9-0.5 2.1-0.9 3.3s-0.8 2.6-1.2 4.1c-0.4 1.5-0.8 2.9-1.2 4.2 -0.4 1.3-0.7 2.5-0.9 3.5 -0.3 1-0.4 1.8-0.4 2.2 0 0.5-0.1 1.5-0.2 3 -0.2 1.5-0.3 3.1-0.5 5 -0.2 1.9-0.3 3.9-0.5 5.9 -0.2 2.1-0.2 3.9-0.2 5.4 0 0.5 0 1 0 1.5 0 0.5 0 0.9 0.1 1.3 2.4-3 5.1-6.1 8-9.4 2.9-3.2 6-6.5 9.2-9.6 3.3-3.2 6.6-6.2 10.2-9 3.5-2.9 7.1-5.4 10.7-7.6 3.6-2.2 7.2-3.9 10.8-5.2s7.1-1.9 10.6-1.9c2 0.1 3.7 0.5 5.1 1.3s2.7 1.7 3.7 2.8 1.7 2.2 2.2 3.3c0.5 1.1 0.7 2.1 0.7 2.8v0.1C867.2 189.6 866.8 191.1 866.2 192.4zM977.2 185.9c0 0.5-0.1 1.2-0.3 2.3 -0.2 1.1-0.5 2.3-0.8 3.5 -0.3 1.3-0.7 2.5-1.1 3.8 -0.4 1.2-0.7 2.3-1 3 -0.6 1.7-1.4 3.8-2.4 6.3 -0.9 2.5-1.9 5.2-3 8.2 -1.1 3-2.2 6-3.3 9.2 -1.1 3.2-2.2 6.3-3.2 9.4 -1 3.1-1.9 6-2.8 8.7s-1.6 5.1-2.2 7.1c-0.6 2-1.3 4.4-2.2 7.3s-1.8 5.9-2.9 9.1c-1 3.3-2.1 6.7-3.2 10.2 -1.1 3.6-2.2 7.1-3.3 10.6 -1.1 3.5-2.2 6.9-3.2 10.3 -1 3.3-1.9 6.4-2.8 9.2 -0.6 1.9-1.1 3.9-1.5 6.1 -0.4 2.2-1 4.2-1.8 6.1 -0.7 1.9-1.8 3.5-3.2 4.7s-3.3 1.9-6 1.9c-1 0-2-0.3-2.8-0.8 -0.8-0.5-1.6-1.2-2.1-1.9s-1-1.7-1.4-2.6c-0.3-1-0.5-1.9-0.5-2.8 0-1.5 0.4-3.4 1.1-5.8 0.8-2.3 1.7-4.9 2.8-7.8 1.1-2.9 2.3-5.9 3.6-9.1 1.3-3.2 2.5-6.4 3.6-9.6 1.6-4.9 3.2-9.5 4.7-13.9 1.5-4.4 2.9-8.2 4-11.7 1.1-3.4 2-6.2 2.7-8.4 0.7-2.2 1-3.5 1-4 0-0.6-0.1-1.2-0.3-1.6 -0.2-0.4-0.5-0.6-1.1-0.6 -0.5 0-1.4 0.5-2.9 1.5 -1.5 1-3.4 2.3-5.6 3.8 -2.2 1.5-4.7 3.1-7.5 4.8 -2.8 1.7-5.6 3.3-8.6 4.8 -3 1.5-5.9 2.8-8.8 3.8 -2.9 1-5.7 1.5-8.3 1.5 -4 0-7.6-0.7-10.7-2 -3.1-1.4-5.7-3.1-7.8-5.2 -2.1-2.1-3.7-4.5-4.8-7 -1.1-2.6-1.7-5.1-1.7-7.5 0-1.9 0.2-4.4 0.6-7.3 0.4-2.9 1-6 1.8-9.4 0.8-3.3 1.6-6.8 2.7-10.4 1-3.6 2.2-7 3.3-10.3s2.4-6.4 3.7-9.3c1.3-2.9 2.6-5.2 3.9-7.1 1.8-2.6 3.4-4.4 4.8-5.5 1.4-1 2.9-1.6 4.3-1.6 1.3 0 2.4 0.2 3.2 0.7 0.8 0.5 1.5 1.1 2 1.9s0.8 1.7 1 2.7c0.2 1 0.2 2.2 0.2 3.3 0 0.9-0.5 2.5-1.6 4.6 -1 2.2-2.3 4.8-3.8 7.9 -1.5 3.1-3 6.6-4.6 10.4 -1.6 3.8-2.9 7.9-4 12.1 -0.6 2.1-1.1 4.4-1.3 6.9 -0.2 2.5-0.3 4.8-0.3 6.9 0 1.9 0.5 3.5 1.5 4.7 1 1.2 2.2 2.2 3.5 3 1.4 0.8 2.8 1.3 4.2 1.6 1.4 0.3 2.6 0.5 3.5 0.5 2.9 0 5.7-0.5 8.5-1.5 2.8-1 5.6-2.3 8.3-3.8 2.7-1.5 5.3-3.1 7.9-4.8 2.6-1.7 5.1-3.3 7.6-4.6 2.2-1.3 4.5-2.9 6.8-4.8 2.3-1.9 4.4-4 6.2-6.4 0.8-1 1.7-2.9 2.7-5.6 1-2.7 2.1-5.7 3.2-9.1 1.1-3.4 2.2-6.9 3.3-10.5 1.1-3.6 2.1-6.8 2.9-9.7 1-3.4 2.4-6 4-7.6 1.6-1.6 3.1-2.4 4.6-2.4 1.8 0 3.1 0.3 4.1 0.9s1.7 1.3 2.2 2.3c0.5 0.9 0.8 2 0.9 3.1C977.1 183.5 977.2 184.7 977.2 185.9zM1090.4 205.3c0 9.9-1.2 18.9-3.7 27 -2.4 8.1-6.2 15-11.4 20.7 -5.2 5.7-11.8 10.1-19.9 13.2 -8.1 3.1-17.7 4.6-29 4.6h-32.4V143.1h37.8c9.8 0 18.3 1.2 25.6 3.7s13.4 6.2 18.3 11.3 8.5 11.5 11 19.3S1090.4 194.5 1090.4 205.3zM1064.6 206.8c0-6.9-0.5-13-1.7-18.5 -1.1-5.4-3-10-5.6-13.7 -2.6-3.7-6.2-6.6-10.6-8.5 -4.4-1.9-9.9-2.9-16.5-2.9h-12.2v87.4h10.6c11.8 0 20.7-3.5 26.9-10.5C1061.5 233 1064.6 221.9 1064.6 206.8zM1198.5 220.3c0 7.8-1.1 15-3.3 21.4 -2.2 6.5-5.4 12-9.6 16.7 -4.2 4.6-9.3 8.2-15.3 10.7s-13 3.8-20.7 3.8c-7.4 0-13.9-1.1-19.7-3.2 -5.8-2.1-10.7-5.3-14.7-9.6 -4-4.3-7.1-9.6-9.3-16 -2.1-6.4-3.2-13.9-3.2-22.4 0-7.9 1.1-15 3.4-21.5s5.5-11.9 9.7-16.5c4.2-4.6 9.3-8.1 15.4-10.6 6.1-2.5 12.9-3.8 20.5-3.8 7.4 0 14 1.1 19.8 3.3 5.8 2.2 10.7 5.4 14.8 9.7 4 4.3 7.1 9.6 9.2 16C1197.4 204.6 1198.5 212 1198.5 220.3zM1173.7 220.9c0-10.3-1.9-18-5.8-23.2 -3.9-5.2-9.6-7.8-17.1-7.8 -4.2 0-7.7 0.8-10.6 2.4 -2.9 1.6-5.3 3.9-7.2 6.7 -1.9 2.8-3.3 6.1-4.1 9.9 -0.9 3.8-1.3 7.8-1.3 12.1 0 10.4 2.1 18.2 6.3 23.4 4.2 5.2 9.9 7.9 17.1 7.9 4 0 7.4-0.8 10.4-2.4 2.9-1.6 5.3-3.8 7.1-6.6 1.8-2.8 3.2-6.2 4.1-10C1173.2 229.5 1173.7 225.3 1173.7 220.9zM1300.9 269.7c-4.3 1-8.6 1.8-13 2.3 -4.4 0.6-8.5 0.9-12.4 0.9 -6.5 0-12.1-0.7-16.8-2 -4.7-1.4-8.6-3.4-11.7-6.2 -3.1-2.8-5.4-6.4-6.8-10.7 -1.5-4.3-2.2-9.5-2.2-15.5v-48.4h-26.7v-18.5h26.7v-25.4l24.4-6.3v31.7h38.6v18.6h-38.6v46.7c0 5.7 1.3 10 3.9 12.8 2.6 2.9 7 4.4 13.1 4.4 3.9 0 7.7-0.3 11.4-1 3.7-0.6 7.1-1.4 10.2-2.2V269.7z"/><ellipse fill="#E9EDF2" cx="194.1" cy="414.2" rx="109.6" ry="18.7"/></svg>